<svg width="208" height="44" viewBox="0 0 208 44" fill="none" xmlns="http://www.w3.org/2000/svg">
<path d="M191.729 35V14.86H194.655L194.769 19.99L194.389 19.648C194.643 18.4573 195.086 17.482 195.719 16.722C196.353 15.9367 197.113 15.354 197.999 14.974C198.911 14.594 199.887 14.404 200.925 14.404C202.471 14.404 203.737 14.746 204.725 15.43C205.739 16.114 206.486 17.0387 206.967 18.204C207.474 19.344 207.727 20.6233 207.727 22.042V35H204.535V22.954C204.535 21.7127 204.383 20.674 204.079 19.838C203.801 18.9767 203.345 18.3307 202.711 17.9C202.078 17.444 201.255 17.216 200.241 17.216C198.696 17.216 197.417 17.71 196.403 18.698C195.415 19.6607 194.921 21.0793 194.921 22.954V35H191.729Z" fill="black"/>
<path d="M178.666 35.456C176.766 35.456 175.119 35.0253 173.726 34.164C172.358 33.3027 171.294 32.0867 170.534 30.516C169.799 28.92 169.432 27.058 169.432 24.93C169.432 22.802 169.799 20.9527 170.534 19.382C171.294 17.8113 172.345 16.5953 173.688 15.734C175.056 14.8473 176.664 14.404 178.514 14.404C180.262 14.404 181.807 14.822 183.15 15.658C184.492 16.4687 185.531 17.6593 186.266 19.23C187.026 20.8007 187.406 22.7133 187.406 24.968V25.918H172.776C172.902 28.0713 173.472 29.6927 174.486 30.782C175.524 31.8713 176.918 32.416 178.666 32.416C179.983 32.416 181.06 32.112 181.896 31.504C182.757 30.8707 183.352 30.0473 183.682 29.034L187.102 29.3C186.57 31.0987 185.556 32.5807 184.062 33.746C182.592 34.886 180.794 35.456 178.666 35.456ZM172.776 23.106H183.91C183.758 21.1553 183.188 19.724 182.2 18.812C181.237 17.9 180.008 17.444 178.514 17.444C176.968 17.444 175.689 17.9253 174.676 18.888C173.688 19.8253 173.054 21.2313 172.776 23.106Z" fill="black"/>
<path d="M150.278 35V8.02H153.47V25.69L163.274 14.86H167.53L159.588 23.41L167.872 35H163.996L157.422 25.576L153.47 29.756V35H150.278Z" fill="black"/>
<path d="M128.569 35V14.86H131.495L131.609 19.99L131.229 19.648C131.483 18.4573 131.926 17.482 132.559 16.722C133.193 15.9367 133.953 15.354 134.839 14.974C135.751 14.594 136.727 14.404 137.765 14.404C139.311 14.404 140.577 14.746 141.565 15.43C142.579 16.114 143.326 17.0387 143.807 18.204C144.314 19.344 144.567 20.6233 144.567 22.042V35H141.375V22.954C141.375 21.7127 141.223 20.674 140.919 19.838C140.641 18.9767 140.185 18.3307 139.551 17.9C138.918 17.444 138.095 17.216 137.081 17.216C135.536 17.216 134.257 17.71 133.243 18.698C132.255 19.6607 131.761 21.0793 131.761 22.954V35H128.569Z" fill="black"/>
<path d="M113.222 35.456C111.145 35.456 109.485 34.9747 108.244 34.012C107.028 33.0493 106.42 31.7067 106.42 29.984C106.42 28.2613 106.927 26.906 107.94 25.918C108.953 24.93 110.562 24.2333 112.766 23.828L119.91 22.498C119.91 20.8007 119.505 19.534 118.694 18.698C117.909 17.862 116.718 17.444 115.122 17.444C113.729 17.444 112.627 17.7607 111.816 18.394C111.005 19.002 110.448 19.8887 110.144 21.054L106.762 20.788C107.142 18.888 108.054 17.3553 109.498 16.19C110.967 14.9993 112.842 14.404 115.122 14.404C117.706 14.404 119.682 15.1387 121.05 16.608C122.418 18.052 123.102 20.0533 123.102 22.612V30.934C123.102 31.39 123.178 31.7193 123.33 31.922C123.507 32.0993 123.786 32.188 124.166 32.188H124.964V35C124.863 35.0253 124.698 35.038 124.47 35.038C124.242 35.0633 124.001 35.076 123.748 35.076C122.836 35.076 122.089 34.9367 121.506 34.658C120.949 34.354 120.543 33.898 120.29 33.29C120.037 32.6567 119.91 31.8333 119.91 30.82L120.29 30.896C120.113 31.7573 119.682 32.5427 118.998 33.252C118.314 33.936 117.465 34.4807 116.452 34.886C115.439 35.266 114.362 35.456 113.222 35.456ZM113.526 32.644C114.869 32.644 116.009 32.3907 116.946 31.884C117.909 31.352 118.643 30.6427 119.15 29.756C119.657 28.844 119.91 27.8307 119.91 26.716V25.272L113.374 26.488C112.006 26.7413 111.056 27.134 110.524 27.666C110.017 28.1727 109.764 28.844 109.764 29.68C109.764 30.6173 110.093 31.352 110.752 31.884C111.436 32.3907 112.361 32.644 113.526 32.644Z" fill="black"/>
<path d="M94.274 35.456C92.8807 35.456 91.6393 35.152 90.55 34.544C89.4607 33.9107 88.6247 33.0493 88.042 31.96L87.928 35H85.04V8.02H88.232V17.672C88.7387 16.836 89.524 16.0887 90.588 15.43C91.652 14.746 92.8807 14.404 94.274 14.404C96.0473 14.404 97.58 14.8347 98.872 15.696C100.164 16.5573 101.165 17.7733 101.874 19.344C102.583 20.9147 102.938 22.7767 102.938 24.93C102.938 27.0833 102.583 28.9453 101.874 30.516C101.165 32.0867 100.164 33.3027 98.872 34.164C97.58 35.0253 96.0473 35.456 94.274 35.456ZM94.084 32.416C95.7813 32.416 97.124 31.7447 98.112 30.402C99.1 29.0593 99.594 27.2353 99.594 24.93C99.594 22.5993 99.1 20.7753 98.112 19.458C97.124 18.1153 95.8067 17.444 94.16 17.444C92.9187 17.444 91.8547 17.748 90.968 18.356C90.0813 18.9387 89.3973 19.7873 88.916 20.902C88.46 22.0167 88.232 23.3593 88.232 24.93C88.232 26.45 88.46 27.78 88.916 28.92C89.3973 30.0347 90.0687 30.896 90.93 31.504C91.8167 32.112 92.868 32.416 94.084 32.416Z" fill="black"/>
<path d="M0 4C0 1.79086 1.79086 0 4 0H76C78.2091 0 80 1.79086 80 4V40C80 42.2091 78.2091 44 76 44H4C1.79086 44 0 42.2091 0 40V4Z" fill="black"/>
<path d="M45.2045 35L54.4205 9.44H60.9005L70.1165 35H64.4285L62.5565 29.564H52.7285L50.8565 35H45.2045ZM54.2765 25.064H61.0445L57.6605 15.2L54.2765 25.064Z" fill="white"/>
<path d="M34.2231 35V9.44H39.6951V35H34.2231Z" fill="white"/>
<path d="M11.664 35V9.44H17.136V33.524L14.112 30.392H28.908V35H11.664Z" fill="white"/>
</svg>
